<svg xmlns="http://www.w3.org/2000/svg" viewBox="0 0 55.15 46.93"><defs><style>.cls-1{fill:#1a1a18;}.cls-2{fill:#fc0;}</style></defs><g id="Layer_2" data-name="Layer 2"><g id="Layer_1-2" data-name="Layer 1"><path class="cls-1" d="M27.58,34.07,7.43,14.34a2.3,2.3,0,0,0-3.23,0L.67,17.89a2.3,2.3,0,0,0,0,3.26L26,46.26a2.31,2.31,0,0,0,3.25,0L54.47,21.15a2.3,2.3,0,0,0,0-3.26L51,14.36a2.3,2.3,0,0,0-3.23,0Z"/><path class="cls-2" d="M27.58,20.39,7.43.65A2.3,2.3,0,0,0,4.2.67L.67,4.2a2.3,2.3,0,0,0,0,3.26L26,32.57a2.31,2.31,0,0,0,3.25,0L54.47,7.46a2.3,2.3,0,0,0,0-3.26L51,.67a2.3,2.3,0,0,0-3.23,0Z"/></g></g></svg>