<svg xmlns="http://www.w3.org/2000/svg" viewBox="0 0 453.11 458.4"><defs><style>.cls-1{fill:#1a1a18;}.cls-2,.cls-4{fill:#fff;}.cls-3{fill:#fc0;}.cls-4{fill-rule:evenodd;}</style></defs><g id="Layer_2" data-name="Layer 2"><g id="Layer_1-2" data-name="Layer 1"><path class="cls-1" d="M452.58,319.59c-1.67-14.74-7.1-29.22-17.36-40.21a61.47,61.47,0,0,0-6.05-5.61c-.26-3-.57-5.91-.91-8.86l0,0a300.59,300.59,0,0,0-19.41-77.44c5.81-43,11.52-87.09,8.95-130.27-.83-13.81-5.64-76.34-30.05-51.41-11.47,11.7-18.08,30.13-24.66,45.87a447.31,447.31,0,0,0-16,44C343.7,110.21,341,124.87,337,139.17a.16.16,0,0,1-.31,0c-.5-13.77,1.8-28,5.07-41.8-25.67-18.77-57.18-30.6-95-32-37.58-1.4-69.18,4.3-95.54,16.36a162.74,162.74,0,0,0-37.86,24.18c2.24,11.05,3.73,22.25,3.33,33.28a.16.16,0,0,1-.32,0c-4.14-14.94-7-30.23-10.56-45.36C101.43,79.38,96,65.32,90.32,51.68,83.74,35.94,77.13,17.51,65.66,5.81c-24.4-24.93-29.23,37.6-30,51.41-3,51.09,5.5,103.53,12.11,153.74a387.39,387.39,0,0,0-11.8,46.11c-1.63,8.35-4.78,28.87-5.08,31.13C4.75,301-5.92,333.13,3.21,360.87c9.43,28.63,33.7,48.2,63.05,53.91C93,420,120,419.28,145.48,429.4c10.16,4,22.87,9.18,33.92,5.17,10.36-3.75,24.68-32,8-39.08-5.81-2.46-13.93-1.85-20.18-2.24-1-.06-1.32-1.63-.25-1.8,2.87-.44,5.67-.83,8.36-1.08,0-5.79-.16-11.59-.21-17.39a2.19,2.19,0,0,1-.8.2c-9.31.41-17.79,2.33-24.57,9.19-1.89,1.92-3.69,4.37-6,5.86-6.51,4.24-14.1,7-21.62,8.87-10,2.51-18.24.73-28-2.31-23.53-7.31-62.34-24-61.91-53.92a.92.92,0,0,1,1.8-.25c9.71,30.76,40.26,46.42,70.36,52.84,11.86,2.53,30.19-.61,38.73-9.89,8.89-9.66,18-13.82,31.22-14.37a2,2,0,0,1,.8.13c0-5.48,0-11,.24-16.42s0-11,2.66-15.77c4.73-8.45,31-4.92,38.28-5,13.27-.2,33.92-4.14,46.32,1.7,4.8,2.27,5.44,10.68,5.42,17.6,4.84-1.34,11.29-3.36,15.81-2.25,9,2.2,10.92,7.22,17,13.65,12.38,13.05,21.4,17.69,38.65,18.15,15.77.43,32.26-1.35,46.5-8.61,17.18-8.76,26.1-21.59,36.19-37.47.47-.73,1.93-.53,1.79.49-4.26,33.06-39.87,48.16-69.42,50-11.68.75-23.92.53-35.28-2.66-8.92-2.5-15.7-10.06-21.34-17-4.22-5.22-8.25-13.54-16.64-12.62-4.48.5-8.89,1.33-13.33,2.1,0,1.54-.07,2.88-.05,3.9q.42,18,.57,36c9.3,2.92,17.87-3.63,26.05-.57,5.57,2.08,10,8.11,15.5,10.78A69.34,69.34,0,0,0,328.23,411c29.57,5.45,63.38,4.66,88.81-13.47,24.91-17.75,39.06-47.05,35.54-78M62.05,161c-5.22-15.29-6.77-33.07-6.65-49.14.11-14.93,2-29.61,6.73-43.74.42-1.26,1.95-4.47-.21-14.35-1.18-5.4-2.43-12-5.59-16.65-3.57-5.27-5.55,5.26-5.92,7.13C49.11,51,48,58.56,48.89,65.41c.08.57-.8.64-1,.13-2.49-8.12-1.94-19.84.9-27.82,1.93-5.4,7-9.18,10.62-2.41,4.16,7.77,7.38,19.73,9.83,32.6,3,15.66,6.9,42.11,7.19,63.59C77,166.76,69.94,184.11,62.05,161ZM405.49,65.54c-.15.51-1,.44-1-.13.92-6.85-.21-14.45-1.52-21.15-.36-1.87-2.35-12.4-5.92-7.13-3.15,4.65-4.4,11.25-5.58,16.65-2.16,9.88-.63,13.09-.21,14.35,4.71,14.13,6.62,28.81,6.73,43.74.12,16.07-1.44,33.85-6.65,49.14-7.89,23.1-14.92,5.75-14.43-29.51.29-21.48,4.21-47.93,7.18-63.59,2.46-12.87,5.68-24.83,9.84-32.6,3.62-6.77,8.68-3,10.6,2.41C407.42,45.7,408,57.42,405.49,65.54Z"/><path class="cls-2" d="M366.77,335.14c-1.12-1.09-2.27-2.16-3.45-3.18a127.92,127.92,0,0,0-20.17-15.59c12.82-35.19,11.19-76.76-2.08-111.29a1.51,1.51,0,0,0-2.89,0c-11.84,31.51-29.33,60.27-45.92,89.43-20.24-5.75-41.1-9.09-60.23-11.05a287.59,287.59,0,0,0-68.94,1.14c-10.44-12.31-18.46-27.22-26.55-40.91-1.74-2.94-6.32-12.92-11.93-22.63-2.2-3.8-5.16-5.91-7.45,1.57-7.41,24.33-6.5,48.71-1.52,73.55-11.84,4.52-23.36,10.57-32.48,18.52-4.82,4.2-5.34,7.81,1.25,4.57l3.87-1.88c44.3-20.34,93-23.66,141.73-19.32,38.9,3.47,83.21,12.55,119.09,32.61q7.13,4.31,14,9.05c6.73,4.68,9.59,1.17,3.71-4.59"/><path class="cls-3" d="M184.09,439a35.44,35.44,0,0,1-4.31,1.17c.18,9.58,0,17.5,12,17.55,7.74,0,15.49.14,23.22.25,13.07.16,26.52,1.07,39.55-.14,13.41-1.23,9.57-17.86,9.75-27.7q.19-11.08.24-22.16c0-15.2,0-30.4-.37-45.6-.22-10.47,2.67-26.54-12.78-26.65q-17.53-.14-35.06.15c-10.39.15-36-3.6-37,11.9-.9,14.11-.61,28.31-.66,42.45,9.09-.3,16.58,2.11,20.62,13.25,3.9,10.72-3.73,31.65-15.11,35.53"/><path class="cls-3" d="M118,295.32c-4.15-21.13-5.5-42-.87-63.24,1-4.46,2.69-12.28,4.41-9,2,4,4.51,7.7,6.74,11.56,9.71,16.74,19.16,35.26,31.8,50.37-5.87.88-11.72,1.9-17.5,3.17A194.14,194.14,0,0,0,118,295.32"/><path class="cls-3" d="M320.53,250.49c4.77-8.89,9.2-17.94,13.38-27.12,2.44-5.34,3.93-19.16,7.79-7.83,10.43,30.62,9.81,68.38-1.23,99.2C326.56,306.37,311,300.06,295,295.33q13.34-22.09,25.5-44.84"/><path class="cls-3" d="M385.91,82.71c-2,12.57-3.48,25.25-4.7,37.72s-1,25,1.59,37.21c.95,4.37,2.63,8.74,5.18,2.42,2.13-5.34,3-11.23,3.92-16.87,3.55-21,3.76-43.13-1.28-63.94-2.27-9.41-3.84-2-4.71,3.46"/><path class="cls-3" d="M67.52,82.71c-.87-5.45-2.44-12.87-4.71-3.46-5,20.81-4.83,42.89-1.29,63.94.95,5.64,1.79,11.53,3.94,16.87,2.54,6.32,4.22,1.95,5.17-2.42,2.63-12.18,2.77-24.85,1.58-37.21s-2.7-25.15-4.69-37.72"/><path class="cls-2" d="M312,173.69c-8.06-20.95-18.3-38.87-36.48-52.6-41.52-31.35-113.68-9.87-131.4,39-2.34,6.5-9,22.31.28,22.5a59.71,59.71,0,0,0,3,29.24c3.18,9,9.35,17,17.61,23.68,27.25,22.06,96.37,24.18,121.94-1.78,13.26-13.44,20.36-31.11,20.65-48a6.15,6.15,0,0,0,3.7-.42c4.34-2.54,2.08-8,.65-11.67m-7.25,7.56c-6.65-1.31-13.13-2.95-19.85-4a391.94,391.94,0,0,0-60.13-4.91c-3.36,0-6.71.11-10.06.21a304.84,304.84,0,0,0-56,3.09c-4.31.62-8.59,1.46-12.86,2.37-6.26,1.33,3.13-17.81,5.39-22.28,13.63-26.78,41-41.07,70-43.62,31-2.72,58,12.42,75,37.71,4.37,6.49,7.31,14,10.42,21.16C307.76,173.52,313.42,183,304.72,181.25Z"/><path class="cls-2" d="M162.25,170.06c21.72-3.46,42.87-5.79,64.89-5.59,21.8.21,43.36,3.63,64.84,7.12a.39.39,0,0,0,.21-.76c-20.8-7.56-43-9.61-65.05-9.94-21.42-.33-44.6,1.85-65,8.68A.25.25,0,0,0,162.25,170.06Z"/><path class="cls-2" d="M207.74,156.31c7.94-.23,15.78-1.07,23.75-.95s15.93,1.29,23.94,1.41a.34.34,0,0,0,.1-.66c-14.47-4.23-33.46-5-47.84-.09A.15.15,0,0,0,207.74,156.31Z"/><path class="cls-2" d="M259.21,158.12c3.47-.17,6.69,1.43,10.11,1.66.27,0,.3-.33.12-.47-2.83-2.09-7.07-3-10.34-1.57C258.91,157.82,259,158.13,259.21,158.12Z"/><path class="cls-2" d="M55.8,222.22c-8.27,14-13.1,35.39-10.18,51.52a.69.69,0,0,0,1.32,0c2.3-8.34,3.25-16.94,5-25.43s4.38-17.1,4.41-25.95A.28.28,0,0,0,55.8,222.22Z"/><path class="cls-2" d="M400.86,204.5c3.21,9.85,6.3,19.37,8.41,29.56s2.68,20.91,8,30a.76.76,0,0,0,1.37-.18c4.37-18.64-5.41-45.2-17.39-59.62C401.09,204.1,400.79,204.29,400.86,204.5Z"/><path class="cls-2" d="M127.68,110.77c24.72-12.28,47.11-22.42,74.81-26,25.21-3.29,50.46.3,75.69,1,.87,0,.88-1.11.19-1.4-45.54-19.1-115-9-151.16,25.78C126.88,110.48,127.3,111,127.68,110.77Z"/><path class="cls-1" d="M226.06,212.37a13.48,13.48,0,1,0,13.48,13.48,13.6,13.6,0,0,0-13.48-13.48"/><path class="cls-4" d="M195.24,346.39a6.38,6.38,0,1,1-6.37,6.37,6.37,6.37,0,0,1,6.37-6.37"/><path class="cls-4" d="M195.24,361.76a6.38,6.38,0,1,1-6.37,6.38,6.38,6.38,0,0,1,6.37-6.38"/></g></g></svg>