<svg xmlns="http://www.w3.org/2000/svg" viewBox="0 0 462.13 264.51"><defs><style>.cls-1{fill:#1a1a18;}.cls-2{fill:#fc0;}.cls-3,.cls-4{fill:#fff;}.cls-4{fill-rule:evenodd;}</style></defs><g id="Layer_2" data-name="Layer 2"><g id="Layer_1-2" data-name="Layer 1"><path class="cls-1" d="M102.39,140v-1.84a43.41,43.41,0,0,0-13.28-30.33A41.4,41.4,0,0,0,58.88,95.28q-17.57,0-30.34,13.07A43.64,43.64,0,0,0,15.78,140a44.37,44.37,0,0,0,12.76,31.87q12.76,13.27,30.64,13.27t30.54-13.27A44.58,44.58,0,0,0,102.39,140m5.1,47.6a2.34,2.34,0,0,1-2.65,2.65,2.22,2.22,0,0,1-1.74-.82,2.67,2.67,0,0,1-.71-1.83V162.89A50.14,50.14,0,0,1,84.72,182.7a45.46,45.46,0,0,1-25.43,7.56q-20.24,0-34.42-14.81A49.4,49.4,0,0,1,10.67,140a48.72,48.72,0,0,1,14.2-35.24,46.22,46.22,0,0,1,34.42-14.6,45.46,45.46,0,0,1,25.43,7.56,49.82,49.82,0,0,1,17.67,20V50.34a3.28,3.28,0,0,1,.81-2,2.21,2.21,0,0,1,1.64-1c1.77,0,2.65,1,2.65,3.07Z" transform="translate(-7.46)"/><path class="cls-1" d="M128.73,140.32a39.05,39.05,0,0,0,11.34,28.29q11.34,11.64,27,11.64a36.49,36.49,0,0,0,26.76-11.13,39.1,39.1,0,0,0,11.75-27.07v-3.26a39.72,39.72,0,0,0-11.75-27.38A36.31,36.31,0,0,0,167,100.18q-15.61,0-27,11.74a39.4,39.4,0,0,0-11.34,28.4m76.81,45V170.85a48.85,48.85,0,0,1-16.75,14.2,47.61,47.61,0,0,1-56-9.4q-14.1-14.6-14.09-35.33t14.09-35.44a47.17,47.17,0,0,1,56-9.4,50,50,0,0,1,16.75,14.3V52.18a4.59,4.59,0,0,1,1.53-3.48,5.08,5.08,0,0,1,3.58-1.43,4.88,4.88,0,0,1,4.9,4.91V185.36a4.88,4.88,0,0,1-4.9,4.9,5.08,5.08,0,0,1-3.58-1.43A4.57,4.57,0,0,1,205.54,185.36Z" transform="translate(-7.46)"/><path class="cls-1" d="M128.73,140.32a39.05,39.05,0,0,0,11.34,28.29q11.34,11.64,27,11.64a36.49,36.49,0,0,0,26.76-11.13,39.1,39.1,0,0,0,11.75-27.07v-3.26a39.72,39.72,0,0,0-11.75-27.38A36.31,36.31,0,0,0,167,100.18q-15.61,0-27,11.74a39.4,39.4,0,0,0-11.34,28.4m76.81,45V170.85a48.85,48.85,0,0,1-16.75,14.2,47.61,47.61,0,0,1-56-9.4q-14.1-14.6-14.09-35.33t14.09-35.44a47.17,47.17,0,0,1,56-9.4,50,50,0,0,1,16.75,14.3V52.18a4.59,4.59,0,0,1,1.53-3.48,5.08,5.08,0,0,1,3.58-1.43,4.88,4.88,0,0,1,4.9,4.91V185.36a4.88,4.88,0,0,1-4.9,4.9,5.08,5.08,0,0,1-3.58-1.43A4.57,4.57,0,0,1,205.54,185.36Z" transform="translate(-7.46)"/><path class="cls-1" d="M278.66,190.26a50.4,50.4,0,0,1-36.56-15q-15.32-15-15.32-36.06t15.32-35.95a51.31,51.31,0,0,1,36.56-15.11,52.25,52.25,0,0,1,32.48,11.23,10.48,10.48,0,0,1,4.09,7.25,10.25,10.25,0,0,1-2.15,8.07,10.7,10.7,0,0,1-7.15,4.09,9.77,9.77,0,0,1-7.86-2.25A33.69,33.69,0,0,0,277.74,110q-11.33,0-20.32,8.79t-9,20.63a27.74,27.74,0,0,0,8.89,20.53q8.88,8.67,20.32,8.68a33.84,33.84,0,0,0,20.43-6.54,9.69,9.69,0,0,1,7.76-2,10.79,10.79,0,0,1,7.25,4.08,10,10,0,0,1,2.15,7.87,11.84,11.84,0,0,1-4.09,7.45Q296,190.26,278.66,190.26" transform="translate(-7.46)"/><path class="cls-2" d="M39.7,200.83c6.11,0,10.63,1.48,13.53,4.42A21.77,21.77,0,0,1,59,216.66l-1.95-1,.92-1.83a26.43,26.43,0,0,1,4.24-5.68A26,26,0,0,1,69.12,203a19.53,19.53,0,0,1,9.13-2.12q8.25,0,12.56,3.56a18.06,18.06,0,0,1,5.91,9.46A50.11,50.11,0,0,1,98.32,227v29.37a6.86,6.86,0,0,1-1.95,5,7.05,7.05,0,0,1-9.86,0,6.86,6.86,0,0,1-2-5V227a23.71,23.71,0,0,0-.92-6.83,9.32,9.32,0,0,0-3.33-4.87c-1.6-1.22-3.9-1.84-6.88-1.84A14.43,14.43,0,0,0,66,215.29a11.89,11.89,0,0,0-4.65,4.87A14.89,14.89,0,0,0,59.77,227v29.37a6.86,6.86,0,0,1-2,5,7.05,7.05,0,0,1-9.86,0,6.86,6.86,0,0,1-2-5V227a23.71,23.71,0,0,0-.92-6.83,9.32,9.32,0,0,0-3.33-4.87c-1.6-1.22-3.9-1.84-6.88-1.84a14.43,14.43,0,0,0-7.46,1.84,12,12,0,0,0-4.65,4.87A14.89,14.89,0,0,0,21.22,227v29.37a6.86,6.86,0,0,1-1.95,5,6.57,6.57,0,0,1-4.93,2,6.57,6.57,0,0,1-4.93-2,6.86,6.86,0,0,1-1.95-5V209a6.88,6.88,0,0,1,2-5,6.57,6.57,0,0,1,4.93-2,6.57,6.57,0,0,1,4.93,2,6.88,6.88,0,0,1,1.95,5v4.93l-1.72-.34a26,26,0,0,1,2.87-4.19,24.78,24.78,0,0,1,4.48-4.19A23.83,23.83,0,0,1,32.7,202,19.61,19.61,0,0,1,39.7,200.83Z" transform="translate(-7.46)"/><path class="cls-2" d="M172.21,232.73A32.3,32.3,0,0,1,168,249.31a30,30,0,0,1-11.24,11.18,33,33,0,0,1-31.55,0A30,30,0,0,1,114,249.31a35,35,0,0,1,0-33.16,30.51,30.51,0,0,1,11.25-11.25,32.61,32.61,0,0,1,31.55,0A30.56,30.56,0,0,1,168,216.15,32.3,32.3,0,0,1,172.21,232.73Zm-13.77,0a20.86,20.86,0,0,0-2.35-10.16,17.59,17.59,0,0,0-6.31-6.71,17.18,17.18,0,0,0-17.55,0,17.52,17.52,0,0,0-6.31,6.71,20.87,20.87,0,0,0-2.36,10.16,20.6,20.6,0,0,0,2.36,10,17.52,17.52,0,0,0,6.31,6.71,17.18,17.18,0,0,0,17.55,0,17.59,17.59,0,0,0,6.31-6.71A20.6,20.6,0,0,0,158.44,232.73Z" transform="translate(-7.46)"/><path class="cls-2" d="M216.5,200.83c5.65,0,10,1.19,12.9,3.56a18.07,18.07,0,0,1,6.08,9.46A48.39,48.39,0,0,1,237.15,227v29.37a6.86,6.86,0,0,1-2,5,7.06,7.06,0,0,1-9.87,0,6.86,6.86,0,0,1-2-5V227a22.35,22.35,0,0,0-1-6.83,9.39,9.39,0,0,0-3.5-4.87c-1.68-1.22-4.09-1.84-7.22-1.84a15.25,15.25,0,0,0-7.75,1.84,12.59,12.59,0,0,0-4.82,4.87,14,14,0,0,0-1.66,6.83v29.37a6.86,6.86,0,0,1-1.95,5,7.06,7.06,0,0,1-9.87,0,6.86,6.86,0,0,1-1.95-5V209a6.88,6.88,0,0,1,1.95-5,7.06,7.06,0,0,1,9.87,0,6.88,6.88,0,0,1,1.95,5v4.93l-1.72-.34a22.72,22.72,0,0,1,3-4.19,28.65,28.65,0,0,1,4.59-4.19,23.24,23.24,0,0,1,6-3.15A20.86,20.86,0,0,1,216.5,200.83Z" transform="translate(-7.46)"/><path class="cls-2" d="M248.5,253.84a6.43,6.43,0,0,1-1-4.13c.08-1.68,1.07-3.14,3-4.36a6.21,6.21,0,0,1,3.9-1,6.54,6.54,0,0,1,4,2.12,27,27,0,0,0,7,5.17,20.51,20.51,0,0,0,9.18,1.83,28.7,28.7,0,0,0,3.78-.51,7.25,7.25,0,0,0,3.62-1.84,5.75,5.75,0,0,0,1.55-4.42,5.05,5.05,0,0,0-1.72-4,14.63,14.63,0,0,0-4.54-2.53q-2.81-1-6.25-2c-2.37-.68-4.8-1.45-7.28-2.29a30.13,30.13,0,0,1-6.83-3.27,15.68,15.68,0,0,1-5-5.34,16.3,16.3,0,0,1-2-8.37,15.14,15.14,0,0,1,3.21-9.75,21,21,0,0,1,8.32-6.2,27.09,27.09,0,0,1,10.73-2.18,34.89,34.89,0,0,1,7.46.86,29.08,29.08,0,0,1,7.45,2.76,18.41,18.41,0,0,1,6,5,8.09,8.09,0,0,1,1.49,4.13,4.93,4.93,0,0,1-2.18,4.36,5.55,5.55,0,0,1-4,1.2,6,6,0,0,1-3.79-1.55,13.52,13.52,0,0,0-5.22-4,17.87,17.87,0,0,0-7.52-1.49,18.82,18.82,0,0,0-3.72.4,7.35,7.35,0,0,0-3.5,1.72,6.26,6.26,0,0,0,.23,8.37,12.82,12.82,0,0,0,4.64,2.53q2.93,1,6.26,1.89t7,2.18a27.59,27.59,0,0,1,6.54,3.33,15.65,15.65,0,0,1,4.82,5.33,16.91,16.91,0,0,1,1.84,8.32,15.09,15.09,0,0,1-3.44,10,21.74,21.74,0,0,1-8.61,6.25,27.43,27.43,0,0,1-10.55,2.13,41,41,0,0,1-13.54-2.36A23.37,23.37,0,0,1,248.5,253.84Z" transform="translate(-7.46)"/><path class="cls-2" d="M308.05,203.13h27.19a6.26,6.26,0,0,1,6.42,6.42,5.92,5.92,0,0,1-1.83,4.42,6.32,6.32,0,0,1-4.59,1.78H308.05a6.29,6.29,0,0,1-6.43-6.43,5.89,5.89,0,0,1,1.84-4.42A6.34,6.34,0,0,1,308.05,203.13Zm12.27-14.34a6.43,6.43,0,0,1,4.88,2,7,7,0,0,1,1.89,5v51.06a5,5,0,0,0,.63,2.64,3.64,3.64,0,0,0,1.73,1.49,5.9,5.9,0,0,0,2.35.46,6,6,0,0,0,2.52-.52,6.41,6.41,0,0,1,2.64-.51,3.85,3.85,0,0,1,2.93,1.49,6.06,6.06,0,0,1,1.32,4.13q0,3.21-3.5,5.27a14.54,14.54,0,0,1-7.52,2.07,39,39,0,0,1-5.33-.4,14.51,14.51,0,0,1-5.51-1.95,11.87,11.87,0,0,1-4.3-4.76q-1.73-3.21-1.72-8.84V195.78a6.83,6.83,0,0,1,7-7Z" transform="translate(-7.46)"/><path class="cls-2" d="M382.05,264.51a33.64,33.64,0,0,1-16.92-4.08,28.13,28.13,0,0,1-11-11.07,32.34,32.34,0,0,1-3.84-15.83q0-10.32,4.19-17.61a29.55,29.55,0,0,1,11-11.19,28.27,28.27,0,0,1,14.34-3.9,26.2,26.2,0,0,1,11.07,2.41,30.38,30.38,0,0,1,9.23,6.6,32,32,0,0,1,6.37,9.69,29.48,29.48,0,0,1,2.35,11.71,5.86,5.86,0,0,1-2.18,4.47,7.27,7.27,0,0,1-4.82,1.72H358L354.52,226h42.1l-2.52,2.29v-3.1a10.55,10.55,0,0,0-2.35-6,15.41,15.41,0,0,0-5.28-4.19,15.08,15.08,0,0,0-6.71-1.55,21.82,21.82,0,0,0-6.43.92,12.29,12.29,0,0,0-5.16,3.1,14.89,14.89,0,0,0-3.44,5.85,28.76,28.76,0,0,0-1.27,9.29,20.08,20.08,0,0,0,2.59,10.5,17.52,17.52,0,0,0,6.65,6.54,17.72,17.72,0,0,0,8.66,2.24,26.6,26.6,0,0,0,6.77-.69,14.9,14.9,0,0,0,4.07-1.67c1-.64,2-1.2,2.81-1.66a8.75,8.75,0,0,1,3.91-1,5.79,5.79,0,0,1,5.85,5.74c0,2.06-1.07,3.94-3.22,5.62a26.66,26.66,0,0,1-8.37,4.41A33.21,33.21,0,0,1,382.05,264.51Z" transform="translate(-7.46)"/><path class="cls-2" d="M427.14,263.36a6.56,6.56,0,0,1-4.93-2,6.83,6.83,0,0,1-2-5V209a6.85,6.85,0,0,1,2-5,7.05,7.05,0,0,1,9.86,0,6.88,6.88,0,0,1,1.95,5v10.78l-.8-7.68a17.84,17.84,0,0,1,3.27-4.88,19.46,19.46,0,0,1,4.53-3.56,20.8,20.8,0,0,1,5.39-2.12,24.48,24.48,0,0,1,5.74-.69,8.76,8.76,0,0,1,5.79,1.95,5.81,5.81,0,0,1,2.35,4.59c0,2.53-.65,4.34-2,5.45a6.39,6.39,0,0,1-4.24,1.66,9.47,9.47,0,0,1-4-.8,10.09,10.09,0,0,0-8.26.17,11.61,11.61,0,0,0-3.9,3,16,16,0,0,0-2.87,5.11,21.2,21.2,0,0,0-1.09,7.17v27.19a6.86,6.86,0,0,1-1.95,5A6.57,6.57,0,0,1,427.14,263.36Z" transform="translate(-7.46)"/><path class="cls-2" d="M61.91,76.3a2.46,2.46,0,0,0-.8-1.84,2.71,2.71,0,0,0-1.93-.77,2.74,2.74,0,0,0-1.94.76,2.51,2.51,0,0,0,0,3.69,2.74,2.74,0,0,0,1.94.76,2.67,2.67,0,0,0,1.93-.77,2.46,2.46,0,0,0,.8-1.83M63,71.57a1,1,0,0,1,.74.31,1,1,0,0,1,.31.72,1,1,0,0,1-.24.69,1,1,0,0,1-.59.36A4.67,4.67,0,0,1,64,76.3a4.44,4.44,0,0,1-1.43,3.34,4.94,4.94,0,0,1-6.85,0,4.6,4.6,0,0,1-.63-6H51.47a1,1,0,0,1-.74-.31,1.06,1.06,0,0,1,0-1.5,1,1,0,0,1,.74-.31Z" transform="translate(-7.46)"/><path class="cls-2" d="M63.75,15.69a1.39,1.39,0,0,1-1,.42,1.41,1.41,0,0,1-1-.42,1.36,1.36,0,0,1-.43-1,1.4,1.4,0,0,1,.43-1,1.38,1.38,0,0,1,1-.43,1.36,1.36,0,0,1,1,.43,1.43,1.43,0,0,1,.42,1,1.39,1.39,0,0,1-.42,1" transform="translate(-7.46)"/><path class="cls-2" d="M56.16,63.48a2.76,2.76,0,0,0,.69,1.81,2.57,2.57,0,0,0,1.37.81V60.6a2.61,2.61,0,0,0-1.33.94,3.39,3.39,0,0,0-.73,1.94m2.76-4.69a.9.9,0,0,1,.69.28,1.09,1.09,0,0,1,.26.75V66a2.34,2.34,0,0,0,1.28-.66A2.78,2.78,0,0,0,62,63.53a2.84,2.84,0,0,0-.48-2.08,1,1,0,0,1-.31-.77.79.79,0,0,1,.26-.68.85.85,0,0,1,1.26,0A4.84,4.84,0,0,1,64,63.43a4.53,4.53,0,0,1-1.43,3.4,4.91,4.91,0,0,1-6.85,0,4.39,4.39,0,0,1-1.43-3.31,4.56,4.56,0,0,1,1.27-3.28,4.7,4.7,0,0,1,3.24-1.45Z" transform="translate(-7.46)"/><path class="cls-2" d="M55.38,49.68a1,1,0,0,1,.65-.43,1.09,1.09,0,0,1,.79.12,1,1,0,0,1,.43.65,1,1,0,0,1-.16.79,3.56,3.56,0,0,0-.72,1.8,1.84,1.84,0,0,0,.35,1.16c.14.21.27.31.38.31a.48.48,0,0,0,.24,0,.74.74,0,0,0,.18-.2A3.84,3.84,0,0,0,58,52.41l0,0v0a8.2,8.2,0,0,1,.59-1.89,2.69,2.69,0,0,1,1.07-1.26A2.52,2.52,0,0,1,61,48.81,2.67,2.67,0,0,1,63.25,50,4.32,4.32,0,0,1,64,52.56,5.59,5.59,0,0,1,62.69,56a1.06,1.06,0,0,1-.69.36,1,1,0,0,1-.75-.23.94.94,0,0,1-.39-.7,1,1,0,0,1,.24-.76A3.25,3.25,0,0,0,62,52.56a2.39,2.39,0,0,0-.37-1.32c-.19-.23-.36-.35-.49-.35a.52.52,0,0,0-.29.06.63.63,0,0,0-.23.25A4.19,4.19,0,0,0,60,52.76v0a7.18,7.18,0,0,1-.57,1.8,3,3,0,0,1-1.07,1.23,2.3,2.3,0,0,1-1.22.33A2.6,2.6,0,0,1,55,55a4.17,4.17,0,0,1-.72-2.41,5.18,5.18,0,0,1,1.07-2.91" transform="translate(-7.46)"/><path class="cls-2" d="M51.47,44h.41a1,1,0,0,1,.75.31,1,1,0,0,1,.31.74,1,1,0,0,1-.31.74,1,1,0,0,1-.75.32h-.41a1.06,1.06,0,1,1,0-2.11m3.16,1.8A1.06,1.06,0,0,1,55.4,44H63a1,1,0,0,1,.74,1.79,1,1,0,0,1-.74.32H55.4A1,1,0,0,1,54.63,45.8Z" transform="translate(-7.46)"/><path class="cls-2" d="M59.23,39.2a2.83,2.83,0,0,0,2-.74A2.37,2.37,0,0,0,62,36.62a2.43,2.43,0,0,0-.8-1.84,2.81,2.81,0,0,0-2-.74,2.88,2.88,0,0,0-2,.75,2.41,2.41,0,0,0,0,3.65,2.89,2.89,0,0,0,2,.76m3.4.74a4.69,4.69,0,0,1-3.41,1.36,4.86,4.86,0,0,1-3.46-1.36A4.53,4.53,0,0,1,55.12,34a1.1,1.1,0,0,1-.58-.37,1.06,1.06,0,0,1-.23-.69,1,1,0,0,1,1-1h7.51A4.64,4.64,0,0,1,67,38.68a1,1,0,0,1-.59.52,1,1,0,0,1-.81-.06,1,1,0,0,1-.53-.59,1.08,1.08,0,0,1,0-.81,2.68,2.68,0,0,0,.27-1.27A2.24,2.24,0,0,0,64.82,35a2.62,2.62,0,0,0-1.49-.91,4.41,4.41,0,0,1,.78,2.55A4.32,4.32,0,0,1,62.63,39.94Z" transform="translate(-7.46)"/><path class="cls-2" d="M63,25.72a1,1,0,0,1,.73.33,1.08,1.08,0,0,1,.3.75,1,1,0,0,1-1,1H55.34a1,1,0,0,1-.73-.3,1,1,0,0,1-.3-.73,1,1,0,0,1,.6-.95,3.83,3.83,0,0,1-.6-2.07,4,4,0,0,1,4-4.06H63a1,1,0,0,1,.73.29.94.94,0,0,1,.3.71,1,1,0,0,1-.3.73,1,1,0,0,1-.73.31H58.35a1.88,1.88,0,0,0-1.39.59,2,2,0,0,0-.57,1.42A1.87,1.87,0,0,0,57,25.15a1.9,1.9,0,0,0,1.39.57Z" transform="translate(-7.46)"/><path class="cls-2" d="M169.83,76.29a2.43,2.43,0,0,0-.81-1.83,2.71,2.71,0,0,0-1.92-.77,2.74,2.74,0,0,0-1.94.76,2.51,2.51,0,0,0,0,3.69,2.74,2.74,0,0,0,1.94.76,2.66,2.66,0,0,0,1.92-.77,2.44,2.44,0,0,0,.81-1.84m1.07-4.72a1,1,0,0,1,.74.31,1,1,0,0,1,.31.72,1,1,0,0,1-.84,1.05,4.59,4.59,0,0,1,.84,2.64,4.48,4.48,0,0,1-1.43,3.35A4.74,4.74,0,0,1,167.1,81a4.8,4.8,0,0,1-3.44-1.38,4.58,4.58,0,0,1-.62-6h-3.65a1.06,1.06,0,0,1-.75-1.81,1,1,0,0,1,.75-.31Z" transform="translate(-7.46)"/><path class="cls-2" d="M164.07,63.48a2.81,2.81,0,0,0,.7,1.81,2.54,2.54,0,0,0,1.37.81V60.6a2.61,2.61,0,0,0-1.33.94,3.47,3.47,0,0,0-.74,1.94m2.77-4.69a.9.9,0,0,1,.69.28,1.09,1.09,0,0,1,.26.75V66a2.25,2.25,0,0,0,1.28-.66,2.74,2.74,0,0,0,.87-1.82,2.83,2.83,0,0,0-.48-2.07,1,1,0,0,1-.31-.77.85.85,0,0,1,.25-.69.88.88,0,0,1,1.27,0,4.88,4.88,0,0,1,1.27,3.44,4.53,4.53,0,0,1-1.43,3.4,4.77,4.77,0,0,1-3.42,1.39,4.84,4.84,0,0,1-3.44-1.39,4.43,4.43,0,0,1-1.43-3.32,4.56,4.56,0,0,1,1.28-3.27,4.7,4.7,0,0,1,3.24-1.45Z" transform="translate(-7.46)"/><path class="cls-2" d="M171.87,52.54c-.1.22-.19.35-.26.38l-.13.07s-.06.07-.15.1l-7.55,3.15a.9.9,0,0,1-.77,0,1,1,0,0,1-.55-.57.81.81,0,0,1,0-.74,1.08,1.08,0,0,1,.56-.57l5.29-2.23L163,49.88a1,1,0,0,1-.56-.54.89.89,0,0,1,0-.78A1,1,0,0,1,163,48a.9.9,0,0,1,.77,0l7.55,3.19a.36.36,0,0,1,.13.08l.09.08a.64.64,0,0,1,.13.12.79.79,0,0,0,.13.13.21.21,0,0,1,.06.1v0h0a.42.42,0,0,0,0,.15v0a.53.53,0,0,1,0,.19.5.5,0,0,1,0,.18v0c0,.08,0,.13,0,.15h0Z" transform="translate(-7.46)"/><path class="cls-2" d="M164.07,40.31a2.81,2.81,0,0,0,.7,1.81,2.54,2.54,0,0,0,1.37.81v-5.5a2.67,2.67,0,0,0-1.33.94,3.47,3.47,0,0,0-.74,1.94m2.77-4.69a.9.9,0,0,1,.69.28,1.09,1.09,0,0,1,.26.75v6.19a2.37,2.37,0,0,0,1.28-.66,2.78,2.78,0,0,0,.87-1.82,2.84,2.84,0,0,0-.48-2.08,1,1,0,0,1-.31-.77.81.81,0,0,1,.25-.68.87.87,0,0,1,1.27,0,4.84,4.84,0,0,1,1.27,3.43,4.53,4.53,0,0,1-1.43,3.4,4.77,4.77,0,0,1-3.42,1.39,4.84,4.84,0,0,1-3.44-1.39,4.43,4.43,0,0,1-1.43-3.31,4.57,4.57,0,0,1,1.28-3.28,4.7,4.7,0,0,1,3.24-1.45Z" transform="translate(-7.46)"/><path class="cls-2" d="M159.4,32.39a1,1,0,0,1-.76-.31,1.07,1.07,0,0,1-.31-.76,1.09,1.09,0,0,1,.31-.77,1.05,1.05,0,0,1,.76-.32h11.48a1,1,0,0,1,.76.32,1,1,0,0,1,.31.77,1.06,1.06,0,0,1-1.07,1.07Z" transform="translate(-7.46)"/><path class="cls-2" d="M165.08,25.31a3,3,0,0,0,2,.7,3.14,3.14,0,0,0,2.06-.7,2.69,2.69,0,0,0,0-3.66,3,3,0,0,0-2.06-.76,2.9,2.9,0,0,0-2,.76,2.66,2.66,0,0,0,0,3.66m5.45-5.12A4.11,4.11,0,0,1,172,23.44a4.41,4.41,0,0,1-1.44,3.33,4.83,4.83,0,0,1-3.44,1.36,4.88,4.88,0,0,1-3.46-1.37,4.42,4.42,0,0,1-1.45-3.3,4.33,4.33,0,0,1,1.47-3.28,5,5,0,0,1,3.5-1.35A4.45,4.45,0,0,1,170.53,20.19Z" transform="translate(-7.46)"/><path class="cls-2" d="M165.14,9a2.44,2.44,0,0,0-.79,1.85,2.41,2.41,0,0,0,.8,1.84,2.89,2.89,0,0,0,2,.74,2.4,2.4,0,0,0,1.88-.75,2.36,2.36,0,0,0,.82-1.82A2.43,2.43,0,0,0,169.05,9a2.73,2.73,0,0,0-1.93-.77,2.87,2.87,0,0,0-2,.76m9.42,4.43a1,1,0,0,1,.73.33,1,1,0,0,1,.32.75,1,1,0,0,1-.32.75,1,1,0,0,1-.73.31h-11.3a1,1,0,0,1-1-1,1.12,1.12,0,0,1,.24-.72.89.89,0,0,1,.56-.36,4.76,4.76,0,0,1-.8-2.64,4.48,4.48,0,0,1,1.44-3.33,4.81,4.81,0,0,1,3.45-1.38,4.7,4.7,0,0,1,3.41,1.38,4.49,4.49,0,0,1,1.41,3.33,4.27,4.27,0,0,1-.8,2.6Z" transform="translate(-7.46)"/><path class="cls-2" d="M171.67,2.48a1.39,1.39,0,0,1-1,.42,1.41,1.41,0,0,1-1-.42,1.36,1.36,0,0,1-.43-1,1.38,1.38,0,0,1,.43-1,1.38,1.38,0,0,1,1-.43,1.36,1.36,0,0,1,1,.43,1.41,1.41,0,0,1,.42,1,1.39,1.39,0,0,1-.42,1" transform="translate(-7.46)"/><path class="cls-2" d="M278,76.08a4.8,4.8,0,0,1-1.43,3.48,4.76,4.76,0,0,1-6.86,0,4.89,4.89,0,0,1-1.44-3.48A5,5,0,0,1,269.32,73a1,1,0,0,1,.69-.39,1,1,0,0,1,.77.2,1,1,0,0,1,.39.68.93.93,0,0,1-.21.75,3.19,3.19,0,0,0-.63,1.94,2.68,2.68,0,0,0,.84,1.93,2.67,2.67,0,0,0,3.92,0,2.69,2.69,0,0,0,.83-1.93,3.26,3.26,0,0,0-.62-2,.91.91,0,0,1-.2-.74,1.06,1.06,0,0,1,.39-.69,1,1,0,0,1,.75-.2A1.15,1.15,0,0,1,277,73a5.26,5.26,0,0,1,1,3.09" transform="translate(-7.46)"/><path class="cls-2" d="M269.42,67.13a3.21,3.21,0,0,1-.85-1.22,3.84,3.84,0,0,1-.31-1.42,1.4,1.4,0,0,1,.3-.95,1,1,0,0,1,.71-.3,1,1,0,0,1,.73.3,1,1,0,0,1,.31.73c0,1.21,1,2.16,2.94,2.86H277a1,1,0,0,1,.73.31,1.05,1.05,0,0,1,.3.75,1,1,0,0,1-1,1h-7.67a1,1,0,0,1-.72-.3,1,1,0,0,1-.29-.74,1.08,1.08,0,0,1,.29-.75,1,1,0,0,1,.72-.31Z" transform="translate(-7.46)"/><path class="cls-2" d="M270.1,56.63a2.76,2.76,0,0,0,.7,1.81,2.55,2.55,0,0,0,1.36.81v-5.5a2.7,2.7,0,0,0-1.32.94,3.4,3.4,0,0,0-.74,1.94m2.76-4.69a.88.88,0,0,1,.69.28,1,1,0,0,1,.27.75v6.19a2.41,2.41,0,0,0,1.28-.66,2.78,2.78,0,0,0,.87-1.82,2.9,2.9,0,0,0-.48-2.07,1,1,0,0,1-.31-.78.78.78,0,0,1,.25-.68.86.86,0,0,1,1.27,0A4.9,4.9,0,0,1,278,56.58a4.57,4.57,0,0,1-1.43,3.4,4.93,4.93,0,0,1-6.86,0,4.43,4.43,0,0,1-1.43-3.31,4.57,4.57,0,0,1,1.28-3.28,4.7,4.7,0,0,1,3.24-1.45Z" transform="translate(-7.46)"/><path class="cls-2" d="M273.12,47.8a2.88,2.88,0,0,0,2-.71,2.36,2.36,0,0,0,.8-1.83,2.39,2.39,0,0,0-.8-1.85,2.79,2.79,0,0,0-2-.73,2.88,2.88,0,0,0-2,.74,2.38,2.38,0,0,0-.82,1.84,2.33,2.33,0,0,0,.81,1.82,2.87,2.87,0,0,0,2,.72M278,45.25a4.3,4.3,0,0,1-1.42,3.29,5.09,5.09,0,0,1-6.88,0,4.31,4.31,0,0,1-1.43-3.29,4.4,4.4,0,0,1,.86-2.59,1.16,1.16,0,0,1-.61-.37.93.93,0,0,1-.25-.67,1,1,0,0,1,.31-.7,1,1,0,0,1,.74-.3H277a1,1,0,0,1,.73.3,1,1,0,0,1,.3.7,1,1,0,0,1-.23.67,1.16,1.16,0,0,1-.61.37A4.38,4.38,0,0,1,278,45.25Z" transform="translate(-7.46)"/><path class="cls-2" d="M268.25,33.52a1.09,1.09,0,0,1,.31-.77,1,1,0,0,1,.75-.32,1.05,1.05,0,0,1,.76.32,1,1,0,0,1,.32.77V34h5.43a1,1,0,0,1,.32-.76,1.09,1.09,0,0,1,.77-.31A1.06,1.06,0,0,1,278,34a2.15,2.15,0,0,1-2.16,2.16h-5.43v.57a1,1,0,0,1-.31.76,1.09,1.09,0,0,1-1.52,0,1.08,1.08,0,0,1-.31-.76v-.57h-2.82a1,1,0,0,1-.76-.32,1.1,1.1,0,0,1,0-1.53,1.07,1.07,0,0,1,.76-.31h2.82Z" transform="translate(-7.46)"/><path class="cls-2" d="M270.1,25a2.76,2.76,0,0,0,.7,1.81,2.63,2.63,0,0,0,1.36.82V22.08a2.7,2.7,0,0,0-1.32.94A3.42,3.42,0,0,0,270.1,25m2.76-4.69a.88.88,0,0,1,.69.28,1,1,0,0,1,.27.75v6.19a2.41,2.41,0,0,0,1.28-.66A2.78,2.78,0,0,0,276,25a2.9,2.9,0,0,0-.48-2.07,1,1,0,0,1-.31-.78.8.8,0,0,1,.25-.68.86.86,0,0,1,1.27,0A4.9,4.9,0,0,1,278,24.91a4.57,4.57,0,0,1-1.43,3.4,4.9,4.9,0,0,1-6.86,0A4.43,4.43,0,0,1,268.25,25a4.57,4.57,0,0,1,1.28-3.28,4.7,4.7,0,0,1,3.24-1.45Z" transform="translate(-7.46)"/><path class="cls-2" d="M277.7,17a1.39,1.39,0,0,1-1,.42,1.43,1.43,0,0,1-1-.42,1.39,1.39,0,0,1-.42-1,1.43,1.43,0,0,1,.42-1,1.4,1.4,0,0,1,1-.43,1.36,1.36,0,0,1,1,.43,1.47,1.47,0,0,1,.42,1,1.43,1.43,0,0,1-.42,1" transform="translate(-7.46)"/><path class="cls-1" d="M451.77,182.55a.86.86,0,0,1-.61-.22.76.76,0,0,1-.24-.59.72.72,0,0,1,.24-.57.86.86,0,0,1,.61-.22H458a.86.86,0,0,1,.61.22.78.78,0,0,1,.24.59.75.75,0,0,1-.24.58.9.9,0,0,1-.61.21Zm3.08,8.15a.88.88,0,0,1-.64-.24.83.83,0,0,1-.26-.61v-8.08h1.82v8.08a.83.83,0,0,1-.26.61A.92.92,0,0,1,454.85,190.7Z" transform="translate(-7.46)"/><path class="cls-1" d="M461.14,180.94a.91.91,0,0,1,.41.1.75.75,0,0,1,.33.27l3.38,5.21-.69,0,3.47-5.18a.78.78,0,0,1,.68-.37.92.92,0,0,1,.6.23.82.82,0,0,1,.26.62v8.06a.89.89,0,0,1-.23.61.95.95,0,0,1-1.26,0,.82.82,0,0,1-.25-.61v-6.56l.54.13-2.84,4.33a1,1,0,0,1-.31.26.61.61,0,0,1-.38.1.58.58,0,0,1-.37-.1,1.18,1.18,0,0,1-.32-.26l-2.66-4.21.37-.74v7a.89.89,0,0,1-.23.61.74.74,0,0,1-.58.24.75.75,0,0,1-.57-.24.89.89,0,0,1-.23-.61v-8.06a.79.79,0,0,1,.26-.6A.84.84,0,0,1,461.14,180.94Z" transform="translate(-7.46)"/><path class="cls-1" d="M463.36,150.79a21,21,0,0,0-5.2-12,19.06,19.06,0,0,0-1.81-1.68c-.08-.89-.17-1.77-.28-2.65h0a89.85,89.85,0,0,0-5.82-23.2c1.75-12.87,3.46-26.09,2.69-39-.25-4.13-1.69-22.87-9-15.4-3.43,3.51-5.41,9-7.38,13.74a133.53,133.53,0,0,0-4.81,13.2c-1,4.34-1.82,8.73-3,13a0,0,0,0,1-.09,0,47.52,47.52,0,0,1,1.52-12.52,50.35,50.35,0,0,0-28.47-9.59c-11.26-.42-20.72,1.28-28.62,4.9a48.71,48.71,0,0,0-11.34,7.24,42.78,42.78,0,0,1,1,10,.05.05,0,0,1-.1,0c-1.24-4.47-2.09-9-3.16-13.58a134.59,134.59,0,0,0-4.65-12.63c-2-4.71-3.95-10.23-7.39-13.74-7.31-7.47-8.76,11.27-9,15.4-.91,15.31,1.65,31,3.63,46.06a116,116,0,0,0-3.54,13.82c-.48,2.5-1.43,8.64-1.52,9.32-7.82,3.82-11,13.46-8.28,21.77a24.35,24.35,0,0,0,18.89,16.16c8,1.55,16.11,1.34,23.73,4.37,3,1.22,6.86,2.75,10.17,1.55,3.1-1.12,7.39-9.59,2.39-11.7-1.74-.74-4.17-.56-6-.67-.3,0-.4-.49-.08-.54.86-.14,1.7-.25,2.5-.33,0-1.73,0-3.47-.06-5.21a.61.61,0,0,1-.24.06c-2.79.13-5.33.7-7.36,2.76a11.4,11.4,0,0,1-1.79,1.75,21.56,21.56,0,0,1-6.47,2.66c-3,.75-5.47.22-8.4-.69-7.05-2.19-18.68-7.21-18.55-16.16a.28.28,0,0,1,.54-.07C340.87,166.3,350,171,359,172.92c3.55.76,9-.19,11.6-3a12.22,12.22,0,0,1,9.35-4.31.61.61,0,0,1,.24,0c0-1.64,0-3.29.08-4.92s0-3.29.79-4.73c1.42-2.53,9.29-1.47,11.47-1.5,4-.06,10.16-1.24,13.88.51,1.43.68,1.63,3.2,1.62,5.27,1.45-.4,3.38-1,4.74-.67,2.69.66,3.27,2.16,5.09,4.09,3.71,3.91,6.41,5.3,11.58,5.44,4.73.12,9.67-.41,13.93-2.58,5.15-2.63,7.82-6.47,10.85-11.23.14-.22.57-.16.53.15-1.27,9.9-11.94,14.42-20.79,15a31.91,31.91,0,0,1-10.58-.8c-2.67-.75-4.7-3-6.39-5.1-1.26-1.56-2.47-4.06-5-3.78-1.34.15-2.67.4-4,.63,0,.46,0,.86,0,1.17q.12,5.38.17,10.79c2.79.87,5.35-1.09,7.8-.17,1.67.62,3,2.43,4.65,3.23a21,21,0,0,0,5.45,1.7c8.85,1.63,19,1.39,26.6-4a25.15,25.15,0,0,0,10.65-23.35m-117-47.51a45.83,45.83,0,0,1-2-14.73,41.79,41.79,0,0,1,2-13.1c.12-.38.58-1.34-.07-4.3a14.78,14.78,0,0,0-1.67-5c-1.07-1.58-1.67,1.58-1.78,2.14a20.19,20.19,0,0,0-.45,6.34c0,.17-.24.19-.29,0a14.89,14.89,0,0,1,.27-8.34c.58-1.62,2.1-2.75,3.18-.72a37.14,37.14,0,0,1,2.95,9.77,122,122,0,0,1,2.15,19C350.83,105,348.72,110.2,346.36,103.28Zm102.89-28.6c0,.15-.3.13-.28,0a20.5,20.5,0,0,0-.46-6.34c-.11-.56-.7-3.72-1.77-2.14a14.57,14.57,0,0,0-1.67,5c-.65,3-.2,3.92-.07,4.3a42.38,42.38,0,0,1,2,13.1,45.83,45.83,0,0,1-2,14.73c-2.36,6.92-4.46,1.72-4.32-8.84a123.27,123.27,0,0,1,2.15-19,37.14,37.14,0,0,1,2.95-9.77c1.09-2,2.6-.9,3.18.72A14.8,14.8,0,0,1,449.25,74.68Z" transform="translate(-7.46)"/><path class="cls-3" d="M437.65,155.45c-.33-.33-.68-.65-1-1a38.76,38.76,0,0,0-6-4.67c3.84-10.54,3.35-23-.63-33.34a.45.45,0,0,0-.86,0c-3.55,9.44-8.79,18.06-13.76,26.79a106.75,106.75,0,0,0-18-3.31,86.57,86.57,0,0,0-20.66.34c-3.13-3.68-5.53-8.15-7.95-12.25-.52-.88-1.9-3.87-3.58-6.78-.66-1.14-1.54-1.77-2.23.47-2.22,7.29-1.95,14.59-.45,22a32.6,32.6,0,0,0-9.73,5.55c-1.45,1.26-1.6,2.34.37,1.37l1.16-.56c13.27-6.1,27.86-7.09,42.46-5.79,11.65,1,24.93,3.76,35.68,9.77,1.42.86,2.82,1.76,4.18,2.71,2,1.4,2.87.35,1.11-1.37" transform="translate(-7.46)"/><path class="cls-2" d="M382.92,186.55a10.29,10.29,0,0,1-1.29.35c.05,2.87,0,5.24,3.58,5.26,2.32,0,4.64,0,7,.07a114.22,114.22,0,0,0,11.85,0c4-.37,2.87-5.35,2.92-8.3,0-2.22.07-4.43.07-6.64,0-4.55,0-9.11-.11-13.66-.06-3.14.8-8-3.83-8q-5.25,0-10.5.05c-3.11,0-10.8-1.08-11.1,3.57-.27,4.22-.18,8.48-.2,12.71,2.72-.09,5,.63,6.18,4s-1.12,9.48-4.53,10.65" transform="translate(-7.46)"/><path class="cls-2" d="M363.12,143.51a45.79,45.79,0,0,1-.26-18.94c.29-1.34.8-3.68,1.32-2.68.61,1.18,1.35,2.3,2,3.46,2.91,5,5.74,10.57,9.52,15.09-1.76.27-3.51.57-5.24.95a58.71,58.71,0,0,0-7.36,2.12" transform="translate(-7.46)"/><path class="cls-2" d="M423.8,130.08q2.15-4,4-8.12c.73-1.6,1.17-5.74,2.33-2.34a46.94,46.94,0,0,1-.37,29.72,58.85,58.85,0,0,0-13.61-5.82q4-6.61,7.64-13.44" transform="translate(-7.46)"/><path class="cls-2" d="M443.39,79.82c-.6,3.76-1.05,7.56-1.41,11.3a36.28,36.28,0,0,0,.48,11.15c.28,1.31.78,2.62,1.55.72a24.21,24.21,0,0,0,1.17-5,48.1,48.1,0,0,0-.38-19.16c-.68-2.82-1.15-.59-1.41,1" transform="translate(-7.46)"/><path class="cls-2" d="M348,79.82c-.26-1.63-.73-3.86-1.41-1a48.1,48.1,0,0,0-.39,19.16,24.88,24.88,0,0,0,1.18,5c.76,1.9,1.27.59,1.55-.72a36.6,36.6,0,0,0,.48-11.15c-.37-3.74-.82-7.54-1.41-11.3" transform="translate(-7.46)"/><path class="cls-3" d="M421.24,107.08c-2.42-6.28-5.49-11.65-10.93-15.76-12.44-9.4-34.06-3-39.37,11.7-.7,1.94-2.7,6.68.08,6.74a17.94,17.94,0,0,0,.92,8.76,16.29,16.29,0,0,0,5.27,7.09c8.17,6.61,28.87,7.25,36.53-.53a21.26,21.26,0,0,0,6.19-14.38,1.81,1.81,0,0,0,1.11-.13c1.3-.76.62-2.38.2-3.49m-2.18,2.26c-2-.39-3.93-.88-5.94-1.19a117,117,0,0,0-18-1.48c-1,0-2,0-3,.07a91.39,91.39,0,0,0-16.78.92c-1.29.19-2.57.44-3.85.71-1.88.4.93-5.33,1.61-6.67,4.09-8,12.29-12.31,21-13.07,9.28-.81,17.37,3.72,22.48,11.3a39.31,39.31,0,0,1,3.13,6.34C420,107,421.67,109.86,419.06,109.34Z" transform="translate(-7.46)"/><path class="cls-3" d="M376.38,106a114.16,114.16,0,0,1,19.44-1.67,128.32,128.32,0,0,1,19.43,2.13.12.12,0,0,0,.06-.23c-6.23-2.26-12.9-2.88-19.49-3a60,60,0,0,0-19.48,2.6A.08.08,0,0,0,376.38,106Z" transform="translate(-7.46)"/><path class="cls-3" d="M390,101.87c2.38-.07,4.73-.32,7.11-.29s4.78.39,7.18.43a.1.1,0,0,0,0-.2,25.5,25.5,0,0,0-14.33,0A0,0,0,0,0,390,101.87Z" transform="translate(-7.46)"/><path class="cls-3" d="M405.43,102.41a26.21,26.21,0,0,1,3,.5c.08,0,.09-.1,0-.14a3.22,3.22,0,0,0-3.09-.47C405.34,102.32,405.37,102.42,405.43,102.41Z" transform="translate(-7.46)"/><path class="cls-3" d="M344.49,121.62c-2.48,4.2-3.92,10.6-3.05,15.43a.2.2,0,0,0,.39,0c.69-2.5,1-5.08,1.49-7.62s1.31-5.12,1.32-7.77A.08.08,0,0,0,344.49,121.62Z" transform="translate(-7.46)"/><path class="cls-3" d="M447.87,116.31a81.88,81.88,0,0,1,2.51,8.85c.63,3.05.81,6.27,2.4,9a.22.22,0,0,0,.41-.05c1.31-5.58-1.62-13.54-5.21-17.86A.07.07,0,0,0,447.87,116.31Z" transform="translate(-7.46)"/><path class="cls-3" d="M366,88.23c7.41-3.68,14.12-6.72,22.42-7.8,7.55-1,15.11.09,22.67.31.26,0,.26-.33.06-.42-13.65-5.72-34.46-2.71-45.29,7.72C365.78,88.14,365.91,88.28,366,88.23Z" transform="translate(-7.46)"/><path class="cls-1" d="M395.5,118.66a4,4,0,1,0,4,4,4.08,4.08,0,0,0-4-4" transform="translate(-7.46)"/><path class="cls-4" d="M386.26,158.81a1.91,1.91,0,1,1-1.91,1.91,1.91,1.91,0,0,1,1.91-1.91" transform="translate(-7.46)"/><path class="cls-4" d="M386.26,163.42a1.91,1.91,0,1,1-1.91,1.91,1.91,1.91,0,0,1,1.91-1.91" transform="translate(-7.46)"/></g></g></svg>